<svg xmlns="http://www.w3.org/2000/svg" viewBox="0 0 90 90" width="90" height="90">
  <defs>
    <!-- Bronze metallic frame — highlight top-left, deep shadow bottom-right -->
    <linearGradient id="bronzeRing" x1="15%" y1="10%" x2="85%" y2="90%">
      <stop offset="0%"   stop-color="#e8b88a"/>
      <stop offset="28%"  stop-color="#8b4e22"/>
      <stop offset="62%"  stop-color="#b87040"/>
      <stop offset="100%" stop-color="#3a1a06"/>
    </linearGradient>
    <!-- Metallic light-green cells -->
    <linearGradient id="grnCell" x1="0%" y1="0%" x2="100%" y2="100%">
      <stop offset="0%"   stop-color="#c4e8b0"/>
      <stop offset="40%"  stop-color="#62a855"/>
      <stop offset="100%" stop-color="#2a5426"/>
    </linearGradient>
    <!-- Metallic silver-sage cells -->
    <linearGradient id="whtCell" x1="0%" y1="0%" x2="100%" y2="100%">
      <stop offset="0%"   stop-color="#f2f9ef"/>
      <stop offset="45%"  stop-color="#c8dcc4"/>
      <stop offset="100%" stop-color="#8aaa86"/>
    </linearGradient>
    <!-- Clip to inner rounded square -->
    <clipPath id="innerClip">
      <rect x="6" y="6" width="78" height="78" rx="13" ry="13"/>
    </clipPath>
  </defs>

  <!-- Bronze rounded-square frame (no separate background — bronze shows as grid gaps) -->
  <rect x="0" y="0" width="90" height="90" rx="20" ry="20" fill="url(#bronzeRing)"/>

  <!-- 3×3 checkerboard — 22px squares, 2px gaps, centered in 90px frame -->
  <!-- Columns/rows start at 10: 10, 34, 58  |  End: 80  |  4px bronze margin each side -->
  <g clip-path="url(#innerClip)">
    <!-- Row 1: G  W  G -->
    <rect x="10" y="10" width="22" height="22" rx="2" fill="url(#grnCell)"/>
    <rect x="34" y="10" width="22" height="22" rx="2" fill="url(#whtCell)"/>
    <rect x="58" y="10" width="22" height="22" rx="2" fill="url(#grnCell)"/>
    <!-- Row 2: W  G  W -->
    <rect x="10" y="34" width="22" height="22" rx="2" fill="url(#whtCell)"/>
    <rect x="34" y="34" width="22" height="22" rx="2" fill="url(#grnCell)"/>
    <rect x="58" y="34" width="22" height="22" rx="2" fill="url(#whtCell)"/>
    <!-- Row 3: G  W  G -->
    <rect x="10" y="58" width="22" height="22" rx="2" fill="url(#grnCell)"/>
    <rect x="34" y="58" width="22" height="22" rx="2" fill="url(#whtCell)"/>
    <rect x="58" y="58" width="22" height="22" rx="2" fill="url(#grnCell)"/>
  </g>

  <!-- Subtle top-left sheen -->
  <rect x="6" y="6" width="78" height="78" rx="13" ry="13"
        fill="none" stroke="rgba(255,255,255,0.16)" stroke-width="1"/>
</svg>
